<?xml version="1.0" encoding="UTF-8" standalone="no"?>
<!DOCTYPE svg PUBLIC "-//W3C//DTD SVG 1.1//EN" "http://www.w3.org/Graphics/SVG/1.1/DTD/svg11.dtd">
<svg version="1.1" xmlns="http://www.w3.org/2000/svg" xmlns:xlink="http://www.w3.org/1999/xlink" preserveAspectRatio="xMidYMid meet" viewBox="0 0 640 640" width="640" height="640"><defs><path d="M89.41 160.59L84.71 190L78.82 219.41L74.12 241.76L64.71 265.29L56.47 285.29L49.41 305.29L70.59 306.47L100 300.59L123.53 294.71L142.35 274.71L150.59 237.06L148.24 208.82L135.29 186.47L122.35 168.82L104.71 155.88L83.53 151.18L62.35 154.71L49.41 170L43.53 191.18L38.82 211.18L31.76 230L25.88 257.06L23.53 277.06L23.53 301.76L28.24 322.94L48.24 333.53L70.59 337.06L95.29 338.24L116.47 339.41L140 338.24L157.65 326.47L174.12 314.71L185.88 298.24L196.47 274.71L204.71 251.18L208.24 230L211.76 207.65L209.41 227.65L205.88 252.35L205.88 277.06L205.88 298.24L208.24 270L214.12 242.94L217.65 214.71L222.35 188.82L227.06 168.82L249.41 162.94L270.59 179.41L280 204.12L276.47 231.18L261.18 247.65L242.35 254.71L264.71 264.12L282.35 275.88L277.65 302.94L258.82 314.71L230.59 314.71L268.24 321.76L303.53 317.06L323.53 307.65L332.94 288.82L337.65 259.41L324.71 288.82L323.53 308.82L347.06 317.06L363.53 297.06L369.41 277.06L362.35 255.88L381.18 265.29L391.76 284.12L390.59 304.12L394.12 325.29L415.29 322.94L428.24 305.29L436.47 286.47L440 262.94L424.71 278.24L424.71 301.76L425.88 322.94L443.53 335.88L457.65 318.24L467.06 295.88L478.82 271.18L481.18 250L464.71 278.24L463.53 312.35L480 337.06L509.41 345.29L552.94 325.29L569.41 300.59L583.53 264.12L584.71 220.59L571.76 178.24L565.88 157.06L544.71 195.88L528.24 224.12L505.88 268.82L495.29 299.41L485.88 338.24L478.82 381.76L474.12 411.18L474.12 440.59L444.71 444.12L435.29 426.47L448.24 400.59L480 384.12L504.71 374.71L532.94 364.12L582.35 342.94L603.53 334.71" id="b2mSVUNA6Q"></path></defs><g><g><g><g><use xlink:href="#b2mSVUNA6Q" opacity="1" fill-opacity="0" stroke="#000000" stroke-width="1" stroke-opacity="1"></use></g></g></g></g></svg>
